<svg width="10" height="6" viewBox="0 0 10 6" fill="none" xmlns="http://www.w3.org/2000/svg">
<path d="M8.50341 1.00343L8.50342 1.00342C8.54408 0.962758 8.59236 0.930503 8.64548 0.908496C8.69861 0.88649 8.75555 0.875164 8.81306 0.875164C8.87056 0.875164 8.92751 0.88649 8.98063 0.908496C9.03376 0.930503 9.08204 0.962758 9.1227 1.00342C9.16336 1.04408 9.19561 1.09236 9.21762 1.14548C9.23963 1.19861 9.25095 1.25555 9.25095 1.31306C9.25095 1.37056 9.23963 1.42751 9.21762 1.48063C9.19561 1.53376 9.16336 1.58203 9.1227 1.6227L5.37281 5.37258L5.3727 5.3727L5.28431 5.28431C5.25528 5.31341 5.2208 5.3365 5.18283 5.35225C5.14486 5.36801 5.10416 5.37612 5.06306 5.37612C5.02195 5.37612 4.98125 5.36801 4.94329 5.35225C4.90532 5.3365 4.87084 5.31341 4.84181 5.28431L8.50341 1.00343ZM8.50341 1.00343L5.06306 4.44439L1.62281 1.00353L1.53431 1.09181L1.6227 1.00343L1.62276 1.00348C1.58213 0.962762 1.53387 0.930455 1.48074 0.908408C1.42759 0.886352 1.3706 0.875 1.31306 0.875C1.25551 0.875 1.19853 0.886352 1.14538 0.908408C1.09223 0.930464 1.04395 0.962789 1.00331 1.00353L1.09181 1.09181L1.00353 1.00331C0.962789 1.04395 0.930464 1.09223 0.908409 1.14538C0.886353 1.19853 0.875 1.25551 0.875 1.31306C0.875 1.3706 0.886353 1.42759 0.908409 1.48074C0.930452 1.53386 0.962754 1.58212 1.00346 1.62274L8.50341 1.00343Z" fill="#272727" stroke="#272727" stroke-width="0.25"/>
</svg>
